<?xml version="1.0" ?><!DOCTYPE svg  PUBLIC '-//W3C//DTD SVG 1.1//EN'  'http://www.w3.org/Graphics/SVG/1.1/DTD/svg11.dtd'><svg enable-background="new 0 0 136.367 135.463" height="135.463px" id="Layer_1" version="1.1" viewBox="0 0 136.367 135.463" width="136.367px" xml:space="preserve" xmlns="http://www.w3.org/2000/svg" xmlns:xlink="http://www.w3.org/1999/xlink"><g><g><g><g><circle cx="68.184" cy="67.731" fill="#D52528" r="63.333"/></g></g><path d="M112.967,22.946c24.732,24.734,24.734,64.834,0,89.568c-24.732,24.732-64.835,24.733-89.568,0    L112.967,22.946z" fill="#CC222D"/><g><path d="M130.243,80.419L98.899,49.075l-36.966,4.209L39.572,87.902l41.782,41.782     C105.921,124.487,125.233,105.056,130.243,80.419z" fill="#BA202E"/></g></g><path clip-rule="evenodd" d="M101.327,55.514   c0-5.309-4.301-9.612-9.606-9.612H46.648c-5.306,0-9.606,4.304-9.606,9.612v25.775c0,5.309,4.301,9.612,9.606,9.612h45.072   c5.306,0,9.606-4.304,9.606-9.612V55.514z M62.756,79.274V55.065l18.358,12.105L62.756,79.274z" fill="#FFFFFF" fill-rule="evenodd" id="YouTube__x28_alt_x29__2_"/></g></svg>